# AST/ASF file generated using VICON BodyLanguage
# -----------------------------------------------
:version 1.10
:name VICON
:units
  mass 1.0
  length 0.45
  angle deg
:documentation
   .ast/.asf automatically generated from VICON data using
   VICON BodyBuilder and BodyLanguage model FoxedUp or BRILLIANT.MOD
:root
   order TX TY TZ RX RY RZ
   axis XYZ
   position 0 0 0  
   orientation 0 0 0 
:bonedata
  begin
     id 1 
     name lhipjoint
     direction 0.692814 -0.645514 0.321437 
     length 2.38754 
     axis 0 0 0  XYZ
  end
  begin
     id 2 
     name lfemur
     direction 0.34202 -0.939693 0  
     length 6.41921  
     axis 0 0 20  XYZ
    dof rx ry rz
    limits (-160.0 20.0)
           (-70.0 70.0)
           (-60.0 70.0)
  end
  begin
     id 3 
     name ltibia
     direction 0.34202 -0.939693 0   
     length 6.98247   
     axis 0 0 20   XYZ
    dof rx
    limits (-10.0 170.0)
  end
  begin
     id 4 
     name lfoot
     direction 0.0947186 -0.260237 0.960888   
     length 1.83034   
     axis -90 7.62852e-016 20   XYZ
    dof rx rz
    limits (-45.0 90.0)
           (-70.0 20.0)
  end
  begin
     id 5 
     name ltoes
     direction 1.53538e-011 -4.21952e-011 1   
     length 0.920499   
     axis -90 7.62852e-016 20   XYZ
    dof rx
    limits (-90.0 20.0)
  end
  begin
     id 6 
     name rhipjoint
     direction -0.631686 -0.693949 0.345555   
     length 2.2209  
     axis 0 0 0  XYZ 
  end
  begin
     id 7 
     name rfemur
     direction -0.34202 -0.939693 0   
     length 6.49542   
     axis 0 0 -20   XYZ
    dof rx ry rz
    limits (-160.0 20.0)
           (-70.0 70.0)
           (-70.0 60.0)
  end
  begin
     id 8 
     name rtibia
     direction -0.34202 -0.939693 0   
     length 7.21712   
     axis 0 0 -20   XYZ
    dof rx
    limits (-10.0 170.0)
 end
 begin
     id 9 
     name rfoot
     direction -0.0825378 -0.226771 0.970444   
     length 1.89724  
     axis -90 -7.62852e-016 -20   XYZ
    dof rx rz
    limits (-45.0 90.0)
           (-20.0 70.0)
  end
  begin
     id 10 
     name rtoes
     direction -1.53515e-011 -4.22016e-011 1   
     length 0.955868   
     axis -90 -7.62852e-016 -20   XYZ
    dof rx
    limits (-90.0 20.0)
  end
  begin
     id 11 
     name lowerback
     direction -0.0104711 0.984802 -0.173368   
     length 1.84931   
     axis 0 0 0   XYZ
    dof rx ry rz
    limits (-20.0 45.0)
           (-30.0 30.0)
           (-30.0 30.0)
  end
  begin
     id 12 
     name upperback
     direction -0.00286433 0.999996 -0.000382853   
     length 1.85768   
     axis 0 0 0   XYZ
    dof rx ry rz
    limits (-20.0 45.0)
           (-30.0 30.0)
           (-30.0 30.0)
  end
  begin
     id 13 
     name thorax
     direction 0.00167534 0.996793 0.0800069   
     length 1.92   
     axis 0 0 0   XYZ
    dof rx ry rz
    limits (-20.0 45.0)
           (-30.0 30.0)
           (-30.0 30.0)
  end
  begin
     id 14 
     name lowerneck
     direction -0.0672491 0.995415 0.068018   
     length 1.58923   
     axis 0 0 0   XYZ
    dof rx ry rz
    limits (-20.0 45.0)
           (-30.0 30.0)
           (-30.0 30.0)
  end
  begin
     id 15 
     name upperneck
     direction 0.0958019 0.982476 -0.159884   
     length 1.60189   
     axis 0 0 0   XYZ
    dof rx ry rz
    limits (-20.0 45.0)
           (-30.0 30.0)
           (-30.0 30.0)
  end
  begin
     id 16
     name head
     direction 0.032989 0.997338 -0.0650226  
     length 1.61681  
     axis 0 0 0   XYZ
    dof rx ry rz
    limits (-20.0 45.0)
           (-30.0 30.0)
           (-30.0 30.0)
  end
  begin
     id 17 
     name lclavicle
     direction 0.954279 0.298875 -0.00496069  
     length 2.99449  
     axis 0 0 0   XYZ
    dof ry rz
    limits (-20.0 10.0)
           (0.0 20.0)
  end
  begin
     id 18 
     name lhumerus
     direction 1 -4.48985e-011 -4.2057e-027   
     length 4.79185   
     axis 180 -30 -90   XYZ
    dof rx ry rz
    limits (-60.0 90.0)
           (-90.0 90.0)
           (-90.0 90.0)
  end
  begin
     id 19
     name lradius
     direction 1 -4.48945e-011 1.15441e-028   
     length 2.65553   
     axis 180 -30 -90   XYZ
    dof rx
    limits (-10.0 170.0)
  end
  begin
     id 20
     name lwrist
     direction 1 -4.4899e-011 4.8894e-028   
     length 1.32777   
     axis -2.56392e-016 90 90   XYZ
    dof ry
    limits (-180.0 0.0)
 end
  begin
     id 21 
     name lhand
     direction 1 -4.48908e-011 9.7788e-028   
     length 0.743904   
     axis -6.23971e-016 90 90   XYZ
    dof rx rz
    limits (-90.0 90.0)
           (-45.0 45.0)
  end
  begin
     id 22 
     name lfingers
     direction 1 -4.49068e-011 1.95576e-027   
     length 0.599754   
     axis -1.24794e-015 90 90   XYZ
    dof rx
    limits (0.0 90.0)
  end
  begin
     id 23
     name lthumb
     direction 0.707107 -6.34883e-011 0.707107   
     length 0.861131   
     axis -90 45 2.85299e-015   XYZ
    dof rx rz
    limits (-45.0 45.0)
           (-45.0 45.0)
  end
  begin
     id 24 
     name rclavicle
     direction -0.957921 0.286916 0.00811568   
     length 3.06817  
     axis 0 0 0   XYZ 
    dof ry rz
    limits (-10.0 20.0)
           (-20.0 0.0)
  end
  begin
     id 25 
     name rhumerus
     direction -1 -4.48971e-011 -3.07942e-027  
     length 4.77254   
     axis 180 30 90   XYZ
    dof rx ry rz
    limits (-90.0 60.0)
           (-90.0 90.0)
           (-90.0 90.0)
  end
  begin
     id 26 
     name rradius
     direction -1 -4.48957e-011 -9.6815e-028   
     length 2.75995   
     axis 180 30 90   XYZ
    dof rx
    limits (-10.0 170.0)
  end
  begin
     id 27 
     name rwrist
     direction -1 -4.48979e-011 4.8894e-028   
     length 1.37997   
     axis -2.56392e-016 -90 -90   XYZ
    dof ry
    limits (-180.0 0.0)
  end
  begin
     id 28
     name rhand
     direction -1 -4.48906e-011 9.7788e-028   
     length 0.701619   
     axis -6.23971e-016 -90 -90   XYZ
    dof rx rz
    limits (-90.0 90.0)
           (-45.0 45.0)
  end
  begin
     id 29
     name rfingers
     direction -1 -4.49018e-011 1.95576e-027   
     length 0.565663   
     axis -1.24794e-015 -90 -90   XYZ
    dof rx
    limits (0.0 90.0)
  end
  begin
     id 30
     name rthumb
     direction -0.707107 -6.34881e-011 0.707107   
     length 0.812183   
     axis -90 -45 -2.85299e-015   XYZ
    dof rx rz
    limits (-45.0 45.0)
           (-45.0 45.0)
  end
:hierarchy
  begin
    root lhipjoint rhipjoint lowerback
    lhipjoint lfemur
    lfemur ltibia
    ltibia lfoot
    lfoot ltoes
    rhipjoint rfemur
    rfemur rtibia
    rtibia rfoot
    rfoot rtoes
    lowerback upperback
    upperback thorax
    thorax lowerneck lclavicle rclavicle
    lowerneck upperneck
    upperneck head
    lclavicle lhumerus
    lhumerus lradius
    lradius lwrist
    lwrist lhand lthumb
    lhand lfingers
    rclavicle rhumerus
    rhumerus rradius
    rradius rwrist
    rwrist rhand rthumb
    rhand rfingers
  end

#!OML:ASF F:\VICON\USERDATA\INSTALL\rory3\rory3.ASF
:FULLY-SPECIFIED
:DEGREES
129
root -7.33316 15.6618 6.3645 -171.351 52.2624 -169.568
lowerback 10.2157 0.349389 5.30341
upperback -1.52303 1.27559 1.30588
thorax -7.27973 0.447308 -1.8161
lowerneck -10.9977 -8.15298 -11.1654
upperneck 19.6513 -10.7411 9.19551
head 9.08903 -4.8722 3.7296
rclavicle -1.1545e-013 -2.26615e-014
rhumerus -29.1375 -4.27753 -83.4353
rradius 24.3961
rwrist 15.7227
rhand -16.2118 14.7724
rfingers 7.12502
rthumb 9.99587 -14.9702
lclavicle -1.1545e-013 -2.26615e-014
lhumerus -32.9679 6.80375 82.1964
lradius 25.8071
lwrist 1.16346
lhand -15.3089 13.5813
lfingers 7.12502
lthumb 10.8668 43.2802
rfemur -9.18081 3.25696 32.4374
rtibia 28.1858
rfoot -17.8784 -14.4766
rtoes 2.80161
lfemur -25.6827 -2.47358 -16.4229
ltibia 64.1213
lfoot -6.12201 9.29806
ltoes -8.76702
130
root -7.2239 15.6601 6.31072 -171.099 52.3837 -169.324
lowerback 10.2169 0.428092 5.43218
upperback -1.51219 1.39697 1.30187
thorax -7.2579 0.502145 -1.91199
lowerneck -10.9345 -8.20169 -11.2053
upperneck 19.42 -10.8231 9.30164
head 9.01587 -4.91071 3.76129
rclavicle -7.237e-014 4.57205e-015
rhumerus -28.7503 -4.1218 -83.6494
rradius 24.3986
rwrist 15.6238
rhand -16.2859 14.6295
rfingers 7.12502
rthumb 9.92438 -15.1165
lclavicle -7.237e-014 4.57205e-015
lhumerus -32.8293 7.17984 82.0634
lradius 25.5309
lwrist 0.454819
lhand -15.4709 13.5884
lfingers 7.12502
lthumb 10.7105 43.2954
rfemur -8.70199 3.17064 32.7027
rtibia 28.1484
rfoot -18.2203 -14.4426
rtoes 2.5945
lfemur -26.6958 -2.78125 -16.2772
ltibia 63.0588
lfoot -7.38369 8.98514
ltoes -5.86013
131
root -7.11915 15.6368 6.25739 -170.922 52.4039 -169.155
lowerback 10.2342 0.481723 5.54186
upperback -1.48853 1.48364 1.30342
thorax -7.2341 0.541351 -1.98589
lowerneck -10.9225 -8.25288 -11.2769
upperneck 19.2029 -10.9056 9.44092
head 8.9614 -4.94706 3.80782
rclavicle 2.91282e-014 -5.56597e-015
rhumerus -28.2671 -4.07653 -83.7769
rradius 24.2695
rwrist 15.7197
rhand -16.3073 14.6465
rfingers 7.12502
rthumb 9.9037 -15.1005
lclavicle 2.91282e-014 -5.56597e-015
lhumerus -32.7467 7.46192 81.9977
lradius 25.3598
lwrist -0.196695
lhand -15.3049 14.0132
lfingers 7.12502
lthumb 10.8707 43.7119
rfemur -8.21073 3.06291 32.9375
rtibia 28.0108
rfoot -18.5228 -14.4173
rtoes 2.93423
lfemur -27.413 -2.94194 -16.3101
ltibia 61.7624
lfoot -8.11985 8.80351
ltoes -7.89517
132
root -7.01404 15.6184 6.19815 -171.053 52.4027 -169.335
lowerback 10.2737 0.519089 5.50062
upperback -1.46806 1.52268 1.22931
thorax -7.23047 0.559994 -2.04785
lowerneck -10.9475 -8.31349 -11.2888
upperneck 19.0441 -10.991 9.48159
head 8.92471 -4.98793 3.80944
rclavicle -5.10877e-014 -1.61016e-014
rhumerus -27.8101 -4.18596 -83.8863
rradius 24.1571
rwrist 15.9606
rhand -16.3566 14.7137
rfingers 7.12502
rthumb 9.85609 -15.0357
lclavicle -5.10877e-014 -1.61016e-014
lhumerus -32.7312 7.39841 82.1322
lradius 25.2397
lwrist -0.0527517
lhand -14.4367 14.5328
lfingers 7.12502
lthumb 11.708 44.1856
rfemur -7.63308 2.91358 32.9332
rtibia 27.793
rfoot -18.6844 -14.4617
rtoes 2.7526
lfemur -28.0879 -3.15714 -16.5567
ltibia 60.3263
lfoot -8.49563 8.67099
ltoes -10.0418
133
root -6.90582 15.6176 6.13486 -171.097 52.3737 -169.344
lowerback 10.3511 0.50101 5.58222
upperback -1.44949 1.50885 1.17155
thorax -7.25263 0.547897 -2.15385
lowerneck -10.9639 -8.33103 -11.2491
upperneck 18.9332 -11.0202 9.48654
head 8.89097 -5.0011 3.79916
rclavicle -4.31798e-014 2.18663e-015
rhumerus -27.4134 -4.25596 -84.064
rradius 24.1171
rwrist 16.2794
rhand -16.4528 14.9342
rfingers 7.12502
rthumb 9.76332 -14.8195
lclavicle -4.31798e-014 2.18663e-015
lhumerus -32.7607 7.46878 82.1346
lradius 25.0663
lwrist -0.0467864
lhand -13.2772 14.1687
lfingers 7.12502
lthumb 12.8259 43.7547
rfemur -6.92157 2.69949 33.0381
rtibia 27.413
rfoot -18.5104 -14.7599
rtoes 1.0703
lfemur -28.7734 -3.60268 -16.5528
ltibia 58.8383
lfoot -9.0374 8.41008
ltoes -8.53623
134
root -6.79731 15.6223 6.07207 -171.005 52.4352 -169.316
lowerback 10.3729 0.505763 5.63425
upperback -1.48269 1.52313 1.15213
thorax -7.29807 0.550195 -2.20653
lowerneck -10.9826 -8.32682 -11.2857
upperneck 18.8457 -11.0148 9.53977
head 8.86937 -4.9982 3.82266
rclavicle -4.39811e-014 -2.18663e-014
rhumerus -27.029 -4.03918 -84.2847
rradius 24.084
rwrist 16.3548
rhand -16.4621 14.9521
rfingers 7.12502
rthumb 9.75432 -14.802
lclavicle -4.39811e-014 -2.18663e-014
lhumerus -32.8657 7.81174 82.0648
lradius 24.8988
lwrist -0.296359
lhand -12.7669 13.777
lfingers 7.12502
lthumb 13.3178 43.3315
rfemur -6.18025 2.53539 33.1217
rtibia 26.7788
rfoot -18.2612 -14.8384
rtoes -0.02755
lfemur -29.468 -3.96083 -16.4983
ltibia 57.2756
lfoot -9.5459 8.13554
ltoes -8.15669
135
root -6.68963 15.6253 6.00989 -170.534 52.4927 -168.834
lowerback 10.3749 0.542639 5.97988
upperback -1.50594 1.62522 1.2031
thorax -7.31056 0.587323 -2.36321
lowerneck -10.9957 -8.36132 -11.4093
upperneck 18.7162 -11.0597 9.65804
head 8.84769 -5.02005 3.87525
rclavicle -6.56238e-014 -8.74653e-015
rhumerus -26.6687 -3.60858 -84.5359
rradius 24.1172
rwrist 16.0384
rhand -16.452 14.6121
rfingers 7.12502
rthumb 9.76408 -15.1415
lclavicle -6.56238e-014 -8.74653e-015
lhumerus -32.9328 8.14882 82.0424
lradius 24.6763
lwrist -0.616915
lhand -12.7939 13.6856
lfingers 7.12502
lthumb 13.2918 43.2418
rfemur -5.30979 2.41216 33.5115
rtibia 25.9593
rfoot -18.2205 -14.4824
rtoes 1.36064
lfemur -30.1166 -4.20064 -16.1315
ltibia 55.6494
lfoot -9.55649 7.99834
ltoes -12.5176
136
root -6.57977 15.6244 5.95055 -170.115 52.5768 -168.289
lowerback 10.4416 0.588409 6.26283
upperback -1.47758 1.73796 1.29257
thorax -7.30549 0.635143 -2.4466
lowerneck -11.0037 -8.38757 -11.5177
upperneck 18.5632 -11.0895 9.7487
head 8.81284 -5.03722 3.91793
rclavicle 1.03927e-013 1.98785e-014
rhumerus -26.2905 -3.38346 -84.7275
rradius 24.125
rwrist 15.907
rhand -16.3823 14.3662
rfingers 7.12502
rthumb 9.83136 -15.3843
lclavicle 1.03927e-013 1.98785e-014
lhumerus -32.9804 8.56779 81.9306
lradius 24.4302
lwrist -1.51033
lhand -12.4075 13.9617
lfingers 7.12502
lthumb 13.6643 43.4932
rfemur -4.36072 2.56286 34.0258
rtibia 25.1786
rfoot -18.1594 -14.5965
rtoes 1.59348
lfemur -30.5599 -4.39884 -15.7108
ltibia 53.8999
lfoot -9.53682 7.97222
ltoes -16.8014
137
root -6.46782 15.623 5.89081 -170.035 52.7491 -168.218
lowerback 10.4844 0.654031 6.19882
upperback -1.4783 1.82039 1.29521
thorax -7.3252 0.677266 -2.42219
lowerneck -10.9605 -8.37348 -11.5491
upperneck 18.393 -11.08 9.83994
head 8.75338 -5.03165 3.95577
rclavicle -1.00399e-013 -2.38542e-014
rhumerus -25.9189 -3.40385 -84.9144
rradius 24.0931
rwrist 16.0485
rhand -16.27 14.3424
rfingers 7.12502
rthumb 9.9397 -15.403
lclavicle -1.00399e-013 -2.38542e-014
lhumerus -33.0997 9.03643 81.6978
lradius 24.2301
lwrist -2.45989
lhand -12.7549 14.3733
lfingers 7.12502
lthumb 13.3294 43.927
rfemur -3.45407 2.7832 34.1953
rtibia 24.3911
rfoot -18.1576 -15.0058
rtoes 0.871143
lfemur -30.9403 -4.62696 -15.6019
ltibia 52.0285
lfoot -10.3277 8.12638
ltoes -14.9071
138
root -6.35826 15.6275 5.82736 -170.061 52.8799 -168.376
lowerback 10.4391 0.67791 6.07707
upperback -1.48187 1.82413 1.21778
thorax -7.30288 0.681764 -2.43536
lowerneck -10.9867 -8.3375 -11.4358
upperneck 18.2423 -11.0483 9.86255
head 8.69748 -5.00981 3.94775
rclavicle 9.10185e-014 9.93923e-015
rhumerus -25.537 -3.16442 -85.2576
rradius 24.1318
rwrist 15.9604
rhand -16.4355 14.2816
rfingers 7.12502
rthumb 9.78003 -15.4713
lclavicle 9.10185e-014 9.93923e-015
lhumerus -33.2214 9.23258 81.5524
lradius 24.0711
lwrist -2.63104
lhand -13.5068 14.4374
lfingers 7.12502
lthumb 12.6047 44.0371
rfemur -2.62312 2.69858 34.1342
rtibia 23.5725
rfoot -18.2397 -15.0967
rtoes 1.47658
lfemur -31.339 -4.97495 -15.6216
ltibia 50.0838
lfoot -10.8914 8.31712
ltoes -12.6508
139
root -6.25003 15.6329 5.76244 -169.888 52.933 -168.204
lowerback 10.4385 0.667615 6.17212
upperback -1.44933 1.82336 1.23192
thorax -7.26583 0.680065 -2.47324
lowerneck -11.0274 -8.31529 -11.4013
upperneck 18.0566 -11.014 9.85999
head 8.63566 -4.9959 3.94308
rclavicle 2.03133e-014 -8.74653e-015
rhumerus -25.1591 -2.7602 -85.5545
rradius 24.2097
rwrist 15.77
rhand -16.4837 14.1567
rfingers 7.12502
rthumb 9.73347 -15.5984
lclavicle 2.03133e-014 -8.74653e-015
lhumerus -33.3525 9.52611 81.4779
lradius 23.8982
lwrist -2.85291
lhand -12.8283 14.5334
lfingers 7.12502
lthumb 13.2587 44.0917
rfemur -1.72841 2.52202 34.3002
rtibia 22.6986
rfoot -18.1017 -15.2794
rtoes 0.810635
lfemur -31.6533 -5.37448 -15.3784
ltibia 48.1139
lfoot -10.7631 8.5167
ltoes -11.8914
140
root -6.13879 15.6348 5.69639 -169.721 53.0951 -167.985
lowerback 10.4938 0.705259 6.25874
upperback -1.42133 1.8907 1.25253
thorax -7.26015 0.711067 -2.51188
lowerneck -11.0709 -8.30263 -11.4314
upperneck 17.8967 -10.9886 9.89204
head 8.59029 -4.98656 3.9595
rclavicle 5.16343e-014 -1.45113e-014
rhumerus -24.851 -2.58748 -85.7926
rradius 24.3103
rwrist 15.7865
rhand -16.3782 14.1304
rfingers 7.12502
rthumb 9.8353 -15.6199
lclavicle 5.16343e-014 -1.45113e-014
lhumerus -33.5278 9.61613 81.5118
lradius 23.649
lwrist -2.68515
lhand -12.5074 14.3697
lfingers 7.12502
lthumb 13.568 43.9076
rfemur -0.68246 2.52171 34.499
rtibia 21.7111
rfoot -17.8061 -15.4034
rtoes -0.0869874
lfemur -31.8366 -5.76051 -15.0892
ltibia 46.1488
lfoot -10.5283 8.91879
ltoes -10.1346
141
root -6.02541 15.636 5.63004 -169.574 53.311 -167.799
lowerback 10.51 0.74714 6.26935
upperback -1.36542 1.94973 1.28115
thorax -7.20493 0.743493 -2.49682
lowerneck -11.2001 -8.27831 -11.465
upperneck 17.7683 -10.9446 9.94363
head 8.57039 -4.96394 3.98304
rclavicle 1.73937e-015 5.76476e-015
rhumerus -24.5554 -2.01612 -86.1959
rradius 24.579
rwrist 15.3077
rhand -16.6585 14.0783
rfingers 7.12502
rthumb 9.56484 -15.6846
lclavicle 1.73937e-015 5.76476e-015
lhumerus -33.6679 9.75313 81.539
lradius 23.4228
lwrist -2.54833
lhand -12.8343 14.1796
lfingers 7.12502
lthumb 13.2529 43.7383
rfemur 0.439138 2.50724 34.6593
rtibia 20.6013
rfoot -17.3954 -15.2898
rtoes -0.174882
lfemur -31.9801 -6.11298 -14.8133
ltibia 44.2098
lfoot -10.3438 9.58283
ltoes -8.95336
142
root -5.90945 15.6371 5.56361 -169.285 53.5071 -167.421
lowerback 10.513 0.78665 6.35297
upperback -1.3089 2.01726 1.33751
thorax -7.13988 0.778633 -2.49432
lowerneck -11.3633 -8.25205 -11.3606
upperneck 17.7047 -10.9018 9.88614
head 8.5637 -4.94013 3.94643
rclavicle -1.64892e-013 -3.27995e-014
rhumerus -24.3412 -1.25663 -86.6814
rradius 24.9538
rwrist 14.52
rhand -16.7794 14.0394
rfingers 7.12502
rthumb 9.44816 -15.7288
lclavicle -1.64892e-013 -3.27995e-014
lhumerus -33.8294 10.1007 81.3536
lradius 23.3265
lwrist -3.28349
lhand -12.3215 14.4165
lfingers 7.12502
lthumb 13.7472 43.9424
rfemur 1.57135 2.50769 34.9467
rtibia 19.4972
rfoot -17.0538 -15.2517
rtoes -0.417971
lfemur -32.0715 -6.39902 -14.3934
ltibia 42.2638
lfoot -10.1969 10.253
ltoes -8.43514
143
root -5.79463 15.6338 5.49977 -168.946 53.6668 -166.941
lowerback 10.6136 0.841086 6.46666
upperback -1.27678 2.12134 1.42448
thorax -7.15399 0.828445 -2.48504
lowerneck -11.4359 -8.2418 -11.2715
upperneck 17.6319 -10.8787 9.79695
head 8.5389 -4.93212 3.90178
rclavicle 6.78353e-014 2.18663e-015
rhumerus -24.1407 -1.0238 -86.9026
rradius 25.164
rwrist 14.3544
rhand -16.3464 13.7494
rfingers 7.12502
rthumb 9.86594 -15.9994
lclavicle 6.78353e-014 2.18663e-015
lhumerus -34.0534 10.4026 81.1667
lradius 23.2124
lwrist -4.10084
lhand -11.7581 14.4829
lfingers 7.12502
lthumb 14.2901 43.9711
rfemur 2.70213 2.57953 35.3208
rtibia 18.4353
rfoot -16.822 -15.2842
rtoes -0.0730891
lfemur -32.0669 -6.68479 -13.8692
ltibia 40.3067
lfoot -10.0652 10.7965
ltoes -7.82725
